<svg width="118" height="9" viewBox="0 0 118 9" fill="none" xmlns="http://www.w3.org/2000/svg">
<ellipse cx="3.35772" cy="4.5" rx="3.35772" ry="3.5" fill="#F18989"/>
<ellipse cx="40.7724" cy="4.5" rx="3.35772" ry="3.5" fill="#7CC1E8"/>
<ellipse cx="84.9024" cy="4.5" rx="3.35772" ry="3.5" fill="#B392DD"/>
<path d="M16.4153 4.40193H12.8242V3.38674H15.483V2.76519H10.2551V1.13536H15.4277V0.520718H9.49542V3.38674H12.0783V4.40193H8.49404V5.02348H16.4153V4.40193ZM9.44708 7.21961C9.44708 8.22099 10.5728 8.78039 12.4443 8.78729C14.309 8.78039 15.4277 8.22099 15.4346 7.21961C15.4277 6.22514 14.309 5.65884 12.4443 5.65884C10.5728 5.65884 9.44708 6.22514 9.44708 7.21961ZM10.2275 7.21961C10.2206 6.61878 11.0562 6.25967 12.4443 6.25967C13.8255 6.25967 14.6612 6.61878 14.6681 7.21961C14.6612 7.82735 13.8255 8.17956 12.4443 8.17265C11.0562 8.17956 10.2206 7.82735 10.2275 7.21961ZM19.4571 0.783149C18.1725 0.790055 17.2678 1.96409 17.2747 3.80801C17.2678 5.65884 18.1725 6.83287 19.4571 6.83287C20.7416 6.83287 21.6463 5.65884 21.6532 3.80801C21.6463 1.96409 20.7416 0.790055 19.4571 0.783149ZM17.9999 3.80801C17.9999 2.39917 18.6007 1.47376 19.4571 1.46685C20.3272 1.47376 20.9142 2.39917 20.9142 3.80801C20.9142 5.22376 20.3272 6.14917 19.4571 6.14917C18.6007 6.14917 17.9999 5.22376 17.9999 3.80801ZM23.0897 8.7942H23.8562V4.23619H25.3065V3.58011H23.8562V0.113259H23.0897V8.7942ZM32.9477 0.113259H32.188V8.80801H32.9477V0.113259ZM26.2695 1.55663H29.5361V3.37983H26.2833V6.70166H27.0085C28.5071 6.70166 29.8262 6.6395 31.4215 6.38398L31.3455 5.74171C29.7916 5.99378 28.5106 6.05594 27.0706 6.05939V4.00829H30.3096V0.921271H26.2695V1.55663Z" fill="black"/>
<path d="M52.894 7.01934H44.9451V7.67541H52.894V7.01934ZM45.6495 1.62569H47.0238V4.66436H45.6633V5.28591H52.1136V4.66436H50.7531V1.62569H52.1343V0.990331H45.6495V1.62569ZM47.7835 4.66436V1.62569H50.0004V4.66436H47.7835ZM61.5366 7.06768H57.9178V5.43094H60.7355V4.79558H55.3418V3.37983H60.5352V0.755525H54.5615V1.39088H59.7755V2.75138H54.5822V5.43094H57.1581V7.06768H53.5877V7.71685H61.5366V7.06768ZM67.914 0.306629H67.175V2.35083H65.8421V2.98619H67.175V5.34116H67.914V0.306629ZM62.2648 4.60221L62.6792 5.20994C63.539 4.82666 64.1433 4.09807 64.4471 3.25207C64.7475 4.00138 65.3173 4.65055 66.1322 4.99586L66.5328 4.40193C65.4347 3.94613 64.7993 2.91713 64.7993 1.97099V1.45994H66.3325V0.824585H62.4375V1.45994H64.0604V1.97099C64.0604 3.00691 63.3974 4.12569 62.2648 4.60221ZM63.7496 6.43232H68.8463V8.7942H69.5991V5.80387H63.7496V6.43232ZM68.8739 5.41713H69.5991V0.113259H68.8739V5.41713ZM77.9032 4.80249H72.6753V3.41436H77.6201V2.79282H72.6753V1.50138H77.8066V0.866022H71.9019V5.43094H77.9032V4.80249ZM70.8728 7.6616H78.8217V7.01934H70.8728V7.6616Z" fill="black"/>
<path d="M94.3689 1.39088V0.720994H93.5678V1.39088C93.5608 2.8826 91.8758 4.19475 90.3702 4.48481L90.7224 5.12707C92.0346 4.81975 93.4089 3.88743 93.9718 2.61671C94.5346 3.89434 95.9124 4.8232 97.2211 5.12707L97.5802 4.48481C96.0678 4.20166 94.3689 2.87569 94.3689 1.39088ZM90.0387 7.61326H97.9876V6.97099H90.0387V7.61326ZM105.877 0.113259H105.118V3.39365H103.281V4.02901H105.118V8.80801H105.877V0.113259ZM99.0819 6.71547H99.7449C101.423 6.70856 102.487 6.65331 103.75 6.44613L103.661 5.81077C102.473 6.02831 101.451 6.06975 99.8554 6.0732V3.97376H102.749V3.35221H99.8554V1.54282H103.136V0.907459H99.0819V6.71547ZM114.479 0.113259H113.712V8.80801H114.479V0.113259ZM107.89 6.65331H108.595C110.349 6.64641 111.495 6.59116 112.842 6.34945L112.759 5.70028C111.457 5.93854 110.352 5.99033 108.664 5.99033V1.58425H112.02V0.941989H107.89V6.65331Z" fill="black"/>
</svg>
